<?xml version="1.0" encoding="UTF-8"?>
<!DOCTYPE svg PUBLIC "-//W3C//DTD SVG 1.1//EN" "http://www.w3.org/Graphics/SVG/1.1/DTD/svg11.dtd">
<svg xmlns="http://www.w3.org/2000/svg" version="1.1" width="64px" height="64px" style="shape-rendering:geometricPrecision; text-rendering:geometricPrecision; image-rendering:optimizeQuality; fill-rule:evenodd; clip-rule:evenodd" xmlns:xlink="http://www.w3.org/1999/xlink">
<g><path style="opacity:0.966" fill="#9bb9c3" d="M 31.5,3.5 C 31.5,11.8333 31.5,20.1667 31.5,28.5C 32.791,28.2627 33.791,28.596 34.5,29.5C 33.5,29.5 32.5,29.5 31.5,29.5C 26.1882,29.3249 22.1882,31.4916 19.5,36C 15.8013,36.8994 12.8013,38.7328 10.5,41.5C 5.48663,41.829 1.81996,39.829 -0.5,35.5C -0.5,32.5 -0.5,29.5 -0.5,26.5C 1.3523,23.5576 4.01897,21.5576 7.5,20.5C 10.6177,14.435 15.6177,11.1016 22.5,10.5C 24.6562,7.0024 27.6562,4.66906 31.5,3.5 Z"/></g>
<g><path style="opacity:1" fill="#617983" d="M 63.5,23.5 C 63.5,26.8333 63.5,30.1667 63.5,33.5C 61.5078,38.3412 57.8412,41.0079 52.5,41.5C 48.2829,38.5967 44.2829,35.43 40.5,32C 38.7834,30.4412 36.7834,29.6079 34.5,29.5C 33.791,28.596 32.791,28.2627 31.5,28.5C 31.5,20.1667 31.5,11.8333 31.5,3.5C 43.2938,0.401594 51.2938,4.73493 55.5,16.5C 58.8303,18.1691 61.4969,20.5025 63.5,23.5 Z"/></g>
<g><path style="opacity:0.984" fill="#eaeaef" d="M 31.5,29.5 C 31.5,39.8333 31.5,50.1667 31.5,60.5C 23.0567,60.9381 14.7233,60.4381 6.5,59C 4.0298,56.2369 3.19647,53.0703 4,49.5C 5.44226,46.0837 7.60893,43.417 10.5,41.5C 12.8013,38.7328 15.8013,36.8994 19.5,36C 22.1882,31.4916 26.1882,29.3249 31.5,29.5 Z"/></g>
<g><path style="opacity:1" fill="#d1d2d7" d="M 31.5,29.5 C 32.5,29.5 33.5,29.5 34.5,29.5C 36.7834,29.6079 38.7834,30.4412 40.5,32C 44.2829,35.43 48.2829,38.5967 52.5,41.5C 55.3911,43.417 57.5577,46.0837 59,49.5C 59.8035,53.0703 58.9702,56.2369 56.5,59C 48.2767,60.4381 39.9433,60.9381 31.5,60.5C 31.5,50.1667 31.5,39.8333 31.5,29.5 Z"/></g>
</svg>
