<?xml version="1.0" standalone="no"?>
<!DOCTYPE svg PUBLIC "-//W3C//DTD SVG 20010904//EN"
 "http://www.w3.org/TR/2001/REC-SVG-20010904/DTD/svg10.dtd">
<svg version="1.0" xmlns="http://www.w3.org/2000/svg"
 width="512.000000pt" height="512.000000pt" viewBox="0 0 512.000000 512.000000"
 preserveAspectRatio="xMidYMid meet">

<g transform="translate(0.000000,512.000000) scale(0.100000,-0.100000)"
fill="#000000" stroke="none">
<path d="M2195 4474 c-346 -41 -615 -145 -875 -340 -651 -489 -864 -1376 -505
-2109 235 -481 676 -819 1208 -927 97 -20 141 -23 332 -22 189 0 235 3 325 23
276 59 536 181 739 348 l54 44 421 -420 c279 -278 430 -422 449 -426 81 -21
156 57 132 137 -4 12 -196 212 -426 444 l-420 420 48 60 c166 207 286 462 344
734 20 90 23 136 23 325 1 191 -2 235 -22 332 -150 744 -745 1289 -1497 1373
-85 9 -263 11 -330 4z m405 -230 c202 -33 448 -136 622 -261 109 -78 259 -229
338 -341 125 -176 215 -389 257 -607 24 -125 24 -405 -1 -530 -122 -618 -584
-1080 -1201 -1201 -129 -25 -396 -25 -530 0 -533 99 -965 466 -1145 971 -157
444 -96 931 167 1329 79 119 260 306 373 385 274 191 596 288 915 275 61 -3
153 -12 205 -20z"/>
</g>
</svg>
