<?xml version="1.0" encoding="UTF-8"?>
<svg version="1.1" xmlns="http://www.w3.org/2000/svg" width="64" height="64">
<path d="M0 0 C5.01791684 2.41935276 8.49958655 5.9991731 11 11 C11.07033769 12.87379605 11.0843022 14.75001102 11.0625 16.625 C11.05347656 17.62789062 11.04445312 18.63078125 11.03515625 19.6640625 C11.02355469 20.43492188 11.01195312 21.20578125 11 22 C12.32 22 13.64 22 15 22 C15 23.65 15 25.3 15 27 C1.14 27 -12.72 27 -27 27 C-27 25.35 -27 23.7 -27 22 C-25.68 22 -24.36 22 -23 22 C-23.04640625 21.27554688 -23.0928125 20.55109375 -23.140625 19.8046875 C-23.37099474 13.6340694 -23.32603769 9.79371744 -19 5 C-12.83628287 -0.42994128 -8.09617809 -0.76299061 0 0 Z " fill="#FFE04D" transform="translate(38,15)"/>
<path d="M0 0 C6.25686185 0 7.38429151 0.28736491 12 4 C17.47829793 10.21860846 17.09491893 13.83697216 17 22 C11.39 22 5.78 22 0 22 C0 14.74 0 7.48 0 0 Z " fill="#FFBC33" transform="translate(32,15)"/>
<path d="M0 0 C13.86 0 27.72 0 42 0 C42 1.65 42 3.3 42 5 C28.14 5 14.28 5 0 5 C0 3.35 0 1.7 0 0 Z " fill="#78E1E7" transform="translate(11,37)"/>
<path d="M0 0 C1.32 0 2.64 0 4 0 C4.33 2.97 4.66 5.94 5 9 C6.32 8.34 7.64 7.68 9 7 C9.66 8.32 10.32 9.64 11 11 C8.36 13.64 5.72 16.28 3 19 C-1.44995051 16.77502475 -3.60084691 14.55366005 -7 11 C-6.34 9.68 -5.68 8.36 -5 7 C-3.68 7.66 -2.36 8.32 -1 9 C-0.67 6.03 -0.34 3.06 0 0 Z " fill="#394C4D" transform="translate(30,45)"/>
<path d="M0 0 C0 1.65 0 3.3 0 5 C-6.93 5 -13.86 5 -21 5 C-21 3.68 -21 2.36 -21 1 C-18.43761495 0.83138242 -15.87511576 0.66504227 -13.3125 0.5 C-12.59126953 0.45230469 -11.87003906 0.40460937 -11.12695312 0.35546875 C-7.41171286 0.11796481 -3.72305126 -0.05874637 0 0 Z " fill="#50C7FF" transform="translate(53,37)"/>
<path d="M0 0 C0.66 0 1.32 0 2 0 C2 6.27 2 12.54 2 19 C-5 13 -5 13 -7 9 C-5.68 8.34 -4.36 7.68 -3 7 C-2.34 7.66 -1.68 8.32 -1 9 C-0.67 6.03 -0.34 3.06 0 0 Z " fill="#4A696F" transform="translate(30,45)"/>
<path d="M0 0 C3.35250701 0.57575664 4.93818629 1.59306263 7.25 4.0625 C7.77078125 4.61035156 8.2915625 5.15820312 8.828125 5.72265625 C9.21484375 6.14417969 9.6015625 6.56570312 10 7 C9.34 8.32 8.68 9.64 8 11 C4.17207132 9.4404735 1.63640136 7.16368164 -1 4 C-0.8125 1.6875 -0.8125 1.6875 0 0 Z " fill="#FFE24A" transform="translate(9,8)"/>
<path d="M0 0 C0.556875 0.268125 1.11375 0.53625 1.6875 0.8125 C1.11174336 4.16500701 0.09443737 5.75068629 -2.375 8.0625 C-2.92285156 8.58328125 -3.47070312 9.1040625 -4.03515625 9.640625 C-4.45667969 10.02734375 -4.87820312 10.4140625 -5.3125 10.8125 C-6.6325 10.1525 -7.9525 9.4925 -9.3125 8.8125 C-7.66495848 4.76853446 -4.80734346 -0.3897846 0 0 Z " fill="#FFBC32" transform="translate(54.3125,8.1875)"/>
<path d="M0 0 C3.96 0 7.92 0 12 0 C12 1.32 12 2.64 12 4 C8.04 4 4.08 4 0 4 C0 2.68 0 1.36 0 0 Z " fill="#FFBA33" transform="translate(52,30)"/>
<path d="M0 0 C3.96 0 7.92 0 12 0 C12 1.32 12 2.64 12 4 C8.04 4 4.08 4 0 4 C0 2.68 0 1.36 0 0 Z " fill="#FFE04D" transform="translate(0,30)"/>
<path d="M0 0 C1.32 0 2.64 0 4 0 C4 3.96 4 7.92 4 12 C2.68 12 1.36 12 0 12 C0 8.04 0 4.08 0 0 Z " fill="#FFCF41" transform="translate(30,0)"/>
</svg>
