<?xml version="1.0" encoding="UTF-8"?>
<!DOCTYPE svg PUBLIC "-//W3C//DTD SVG 1.1//EN" "http://www.w3.org/Graphics/SVG/1.1/DTD/svg11.dtd">
<svg xmlns="http://www.w3.org/2000/svg" version="1.1" width="64px" height="64px" style="shape-rendering:geometricPrecision; text-rendering:geometricPrecision; image-rendering:optimizeQuality; fill-rule:evenodd; clip-rule:evenodd" xmlns:xlink="http://www.w3.org/1999/xlink">
<g><path style="opacity:0.983" fill="#edf5ff" d="M 32.5,5.5 C 31.5049,17.3217 31.1716,29.3217 31.5,41.5C 23.4931,41.6664 15.4931,41.4997 7.5,41C 4.03864,39.6954 1.37197,37.5287 -0.5,34.5C -0.5,31.1667 -0.5,27.8333 -0.5,24.5C 1.41031,20.9319 4.41031,18.9319 8.5,18.5C 11.2425,4.13169 19.2425,-0.20164 32.5,5.5 Z"/></g>
<g><path style="opacity:0.999" fill="#d5e8fe" d="M 32.5,5.5 C 34.1857,7.01648 36.019,8.34981 38,9.5C 45.9255,7.21293 51.4255,9.87959 54.5,17.5C 58.421,18.7659 61.421,21.0993 63.5,24.5C 63.5,27.8333 63.5,31.1667 63.5,34.5C 61.628,37.5287 58.9614,39.6954 55.5,41C 47.5069,41.4997 39.5069,41.6664 31.5,41.5C 31.1716,29.3217 31.5049,17.3217 32.5,5.5 Z"/></g>
<g><path style="opacity:0.846" fill="#d5e8fe" d="M 31.5,45.5 C 31.5,47.1667 31.5,48.8333 31.5,50.5C 23.303,53.0847 14.9696,53.0847 6.5,50.5C 6.11589,48.3352 6.78256,46.6685 8.5,45.5C 16.2114,48.1253 23.8781,48.1253 31.5,45.5 Z"/></g>
<g><path style="opacity:1" fill="#b9dcfe" d="M 31.5,50.5 C 31.5,48.8333 31.5,47.1667 31.5,45.5C 39.5919,43.9227 47.5919,44.256 55.5,46.5C 56.7991,48.3066 56.6324,49.9732 55,51.5C 47.2972,48.1161 39.4639,47.7828 31.5,50.5 Z"/></g>
<g><path style="opacity:1" fill="#b9dcfe" d="M 32.5,57.5 C 31.5655,56.4324 31.2322,55.099 31.5,53.5C 39.7789,51.0227 48.1123,51.0227 56.5,53.5C 56.9899,55.9484 56.1566,57.615 54,58.5C 46.9297,56.206 39.763,55.8726 32.5,57.5 Z"/></g>
<g><path style="opacity:0.897" fill="#d5e8fe" d="M 31.5,53.5 C 31.2322,55.099 31.5655,56.4324 32.5,57.5C 28.6093,59.0919 24.4426,60.0919 20,60.5C 15.7998,59.8278 11.6331,58.9945 7.5,58C 5.93718,55.5237 6.60385,54.0237 9.5,53.5C 16.8526,56.162 24.1859,56.162 31.5,53.5 Z"/></g>
</svg>
