<?xml version="1.0" encoding="UTF-8"?>
<!DOCTYPE svg PUBLIC "-//W3C//DTD SVG 1.1//EN" "http://www.w3.org/Graphics/SVG/1.1/DTD/svg11.dtd">
<svg xmlns="http://www.w3.org/2000/svg" version="1.1" width="64px" height="64px" style="shape-rendering:geometricPrecision; text-rendering:geometricPrecision; image-rendering:optimizeQuality; fill-rule:evenodd; clip-rule:evenodd" xmlns:xlink="http://www.w3.org/1999/xlink">
<g><path style="opacity:0.979" fill="#4a696f" d="M 31.5,5.5 C 31.5,17.5 31.5,29.5 31.5,41.5C 30.8333,41.5 30.1667,41.5 29.5,41.5C 27.8333,41.5 26.1667,41.5 24.5,41.5C 22.5,41.5 20.5,41.5 18.5,41.5C 16.5,41.5 14.5,41.5 12.5,41.5C 6.55932,41.9767 2.22599,39.6434 -0.5,34.5C -0.5,31.1667 -0.5,27.8333 -0.5,24.5C 1.6392,21.2601 4.6392,19.2601 8.5,18.5C 9.24718,8.91932 14.4138,3.91932 24,3.5C 26.8655,3.29989 29.3655,3.96656 31.5,5.5 Z"/></g>
<g><path style="opacity:1" fill="#384a4a" d="M 31.5,5.5 C 33.7742,6.59704 35.9409,7.93037 38,9.5C 45.9133,7.29967 51.4133,9.96634 54.5,17.5C 58.1416,19.1372 61.1416,21.4705 63.5,24.5C 63.5,27.8333 63.5,31.1667 63.5,34.5C 61.0095,39.3066 57.0095,41.6399 51.5,41.5C 49.8333,41.5 48.1667,41.5 46.5,41.5C 44.5,41.5 42.5,41.5 40.5,41.5C 38.8333,41.5 37.1667,41.5 35.5,41.5C 34.1667,41.5 32.8333,41.5 31.5,41.5C 31.5,29.5 31.5,17.5 31.5,5.5 Z"/></g>
<g><path style="opacity:0.8" fill="#66e7ff" d="M 12.5,41.5 C 14.5,41.5 16.5,41.5 18.5,41.5C 17.2702,43.2972 16.6036,45.2972 16.5,47.5C 11.6687,47.8379 10.3354,45.8379 12.5,41.5 Z"/></g>
<g><path style="opacity:0.756" fill="#65e5ff" d="M 24.5,41.5 C 26.1667,41.5 27.8333,41.5 29.5,41.5C 28.9815,43.901 27.8148,45.901 26,47.5C 21.9544,46.5186 21.4544,44.5186 24.5,41.5 Z"/></g>
<g><path style="opacity:0.813" fill="#4ec5ff" d="M 35.5,41.5 C 37.1667,41.5 38.8333,41.5 40.5,41.5C 40.5134,47.0125 38.1801,48.5125 33.5,46C 34.2666,44.5295 34.9332,43.0295 35.5,41.5 Z"/></g>
<g><path style="opacity:0.809" fill="#4dc2ff" d="M 46.5,41.5 C 48.1667,41.5 49.8333,41.5 51.5,41.5C 51.5973,44.3136 50.4307,46.3136 48,47.5C 46.5,47.3333 45.6667,46.5 45.5,45C 45.9891,43.8615 46.3225,42.6948 46.5,41.5 Z"/></g>
<g><path style="opacity:0.765" fill="#65e7ff" d="M 17.5,49.5 C 19.9477,49.0847 21.2811,50.0847 21.5,52.5C 20.5331,54.7617 19.8664,57.095 19.5,59.5C 17.0516,59.9899 15.385,59.1566 14.5,57C 15.6056,54.511 16.6056,52.011 17.5,49.5 Z"/></g>
<g><path style="opacity:0.788" fill="#64e4ff" d="M 28.5,49.5 C 30.4835,49.3832 32.1502,50.0499 33.5,51.5C 32.3052,53.7513 31.3052,56.0846 30.5,58.5C 28.4529,59.9039 26.7862,59.5706 25.5,57.5C 26.5134,54.8122 27.5134,52.1456 28.5,49.5 Z"/></g>
<g><path style="opacity:0.764" fill="#4dc4ff" d="M 39.5,49.5 C 41.4835,49.3832 43.1502,50.0499 44.5,51.5C 43.8179,54.8813 42.1512,57.548 39.5,59.5C 38.263,59.4435 37.263,58.9435 36.5,58C 37.7979,55.2731 38.7979,52.4398 39.5,49.5 Z"/></g>
</svg>
