<?xml version="1.0" encoding="UTF-8"?>
<svg version="1.1" xmlns="http://www.w3.org/2000/svg" width="64" height="64">
<path d="M0 0 C5.02346252 0.478425 8.10192881 1.77985423 12 5 C14.72159174 8.61198904 16 11.37369704 16 16 C16.66 15.649375 17.32 15.29875 18 14.9375 C22.9346328 13.39542725 27.13428613 14.17079384 31.8125 16.25 C34.33916154 18.27132923 35.61526453 20.08476743 37 23 C37 23.99 37 24.98 37 26 C38.093125 26.2475 39.18625 26.495 40.3125 26.75 C44 28 44 28 45.9375 29.5625 C47.58644526 33.34537441 47.68552185 36.94647947 47 41 C44.80168636 44.03215675 43.55036806 44.81654398 40 46 C37.54523939 46.12020641 35.11964156 46.18801507 32.6640625 46.203125 C31.94769623 46.20882507 31.23132996 46.21452515 30.49325562 46.22039795 C28.97859163 46.22983536 27.46390723 46.23637693 25.94921875 46.24023438 C23.64025797 46.24993589 21.33218931 46.28096775 19.0234375 46.3125 C17.54948443 46.31903105 16.07552502 46.32428112 14.6015625 46.328125 C13.91494537 46.3404718 13.22832825 46.3528186 12.52090454 46.36553955 C8.16553043 46.34544975 5.45311886 45.67748076 2 43 C-0.29013653 39.5647952 -0.17842973 38.014669 0 34 C-0.58007812 33.91363281 -1.16015625 33.82726563 -1.7578125 33.73828125 C-7.59593543 32.68818983 -10.83984758 31.26161955 -15 27 C-17.08444253 23.96808359 -17.20216133 21.63890389 -17 18 C-16.505 18.165 -16.01 18.33 -15.5 18.5 C-10.43681019 19.51263796 -6.58548835 19.93061273 -2.125 17.3125 C0.15616648 14.83005412 1.22047316 13.27401274 2 10 C1.6506177 6.57605347 0.89381636 3.31988934 0 0 Z " fill="#BCEAF8" transform="translate(17,0)"/>
<path d="M0 0 C5.02346252 0.478425 8.10192881 1.77985423 12 5 C14.48062187 8.15437102 15.87229943 11.18590888 16.5 15.1875 C15.87763288 18.68831505 14.54349106 19.61065992 12 22 C11.20318682 24.64184541 11.20318682 24.64184541 11 27 C9.9275 27.226875 8.855 27.45375 7.75 27.6875 C3.62781299 29.13026545 2.35585477 30.41910075 0 34 C-6.44344613 33.04064246 -10.40684274 31.70518548 -15 27 C-17.08444253 23.96808359 -17.20216133 21.63890389 -17 18 C-16.505 18.165 -16.01 18.33 -15.5 18.5 C-10.43681019 19.51263796 -6.58548835 19.93061273 -2.125 17.3125 C0.15616648 14.83005412 1.22047316 13.27401274 2 10 C1.6506177 6.57605347 0.89381636 3.31988934 0 0 Z " fill="#FEDB47" transform="translate(17,0)"/>
<path d="M0 0 C8.27737226 1.18248175 8.27737226 1.18248175 12 6 C12.8125 8.8125 12.8125 8.8125 13 11 C14.6396875 11.37125 14.6396875 11.37125 16.3125 11.75 C20 13 20 13 21.9375 14.5625 C23.54686425 18.25457092 23.88133501 22.0582812 23 26 C21.58203125 28.265625 21.58203125 28.265625 19 30 C15.73147006 30.48417062 12.54474981 30.37556719 9.25 30.25 C4.67125 30.12625 4.67125 30.12625 0 30 C0 20.1 0 10.2 0 0 Z " fill="#9FE2F8" transform="translate(41,15)"/>
<path d="M0 0 C0 5.61 0 11.22 0 17 C-11.09433962 14.22641509 -11.09433962 14.22641509 -15.375 8 C-16.12860024 5.58847922 -16.13952346 3.51142219 -16 1 C-15.505 1.165 -15.01 1.33 -14.5 1.5 C-10.89708149 2.2205837 -7.68196905 2.17533186 -4 2 C-1 0 -1 0 0 0 Z " fill="#FFE376" transform="translate(16,17)"/>
<path d="M0 0 C1.65 0 3.3 0 5 0 C5 4.29 5 8.58 5 13 C3.35 13 1.7 13 0 13 C0 8.71 0 4.42 0 0 Z " fill="#9DE2F8" transform="translate(46,49)"/>
<path d="M0 0 C1.65 0 3.3 0 5 0 C5 3.63 5 7.26 5 11 C3.35 11 1.7 11 0 11 C0 7.37 0 3.74 0 0 Z " fill="#BDEAFA" transform="translate(30,49)"/>
<path d="M0 0 C1.65 0 3.3 0 5 0 C5 2.64 5 5.28 5 8 C3.35 8 1.7 8 0 8 C0 5.36 0 2.72 0 0 Z " fill="#9DE1F8" transform="translate(54,49)"/>
<path d="M0 0 C1.65 0 3.3 0 5 0 C5 2.31 5 4.62 5 7 C3.35 7 1.7 7 0 7 C0 4.69 0 2.38 0 0 Z " fill="#B1E7F9" transform="translate(38,57)"/>
<path d="M0 0 C1.65 0 3.3 0 5 0 C5 2.31 5 4.62 5 7 C3.35 7 1.7 7 0 7 C0 4.69 0 2.38 0 0 Z " fill="#BDEBFB" transform="translate(22,49)"/>
<path d="M0 0 C1.65 0 3.3 0 5 0 C5 1.65 5 3.3 5 5 C3.35 5 1.7 5 0 5 C0 3.35 0 1.7 0 0 Z " fill="#B1E7F9" transform="translate(38,49)"/>
</svg>
