<?xml version="1.0" encoding="UTF-8"?>
<svg version="1.1" xmlns="http://www.w3.org/2000/svg" width="64" height="64">
<path d="M0 0 C6.15722649 4.43893073 9.17906996 8.68701378 10.4609375 16.21484375 C10.53570312 16.78332031 10.61046875 17.35179688 10.6875 17.9375 C11.80125 18.0303125 11.80125 18.0303125 12.9375 18.125 C16.58127041 19.20156853 17.69225743 20.75989146 19.6875 23.9375 C19.6875 25.2575 19.6875 26.5775 19.6875 27.9375 C0.8775 27.9375 -17.9325 27.9375 -37.3125 27.9375 C-36.11684783 20.76358696 -36.11684783 20.76358696 -32.3125 17.9375 C-30.9925 17.9375 -29.6725 17.9375 -28.3125 17.9375 C-28.24933594 17.380625 -28.18617187 16.82375 -28.12109375 16.25 C-27.06253998 9.65353859 -24.46331802 5.24189101 -19.3125 0.9375 C-13.24045286 -2.11836686 -6.39936031 -2.05262501 0 0 Z " fill="#D2E6F5" transform="translate(38.3125,8.0625)"/>
<path d="M0 0 C0 9.57 0 19.14 0 29 C-9.24 29 -18.48 29 -28 29 C-26.80434783 21.82608696 -26.80434783 21.82608696 -23 19 C-21.68 19 -20.36 19 -19 19 C-18.93683594 18.443125 -18.87367187 17.88625 -18.80859375 17.3125 C-17.73128297 10.59915281 -15.07258651 6.50040756 -10 2 C-6.19769145 -0.17274774 -4.60440986 0 0 0 Z " fill="#E8F3FC" transform="translate(29,7)"/>
<path d="M0 0 C19.8 0 39.6 0 60 0 C60 1.65 60 3.3 60 5 C40.2 5 20.4 5 0 5 C0 3.35 0 1.7 0 0 Z " fill="#D0E4F5" transform="translate(0,52)"/>
<path d="M0 0 C19.8 0 39.6 0 60 0 C60 1.65 60 3.3 60 5 C40.2 5 20.4 5 0 5 C0 3.35 0 1.7 0 0 Z " fill="#D1E5F5" transform="translate(4,45)"/>
<path d="M0 0 C19.8 0 39.6 0 60 0 C60 1.65 60 3.3 60 5 C40.2 5 20.4 5 0 5 C0 3.35 0 1.7 0 0 Z " fill="#D1E5F5" transform="translate(0,38)"/>
</svg>
