<?xml version="1.0" encoding="UTF-8"?>
<svg version="1.1" xmlns="http://www.w3.org/2000/svg" width="64" height="64">
<path d="M0 0 C2.97 0.66 5.94 1.32 9 2 C9.33 3.65 9.66 5.3 10 7 C10.66 6.67 11.32 6.34 12 6 C12.99 6.33 13.98 6.66 15 7 C14.67 10.63 14.34 14.26 14 18 C15.98 18 17.96 18 20 18 C19.505 12.555 19.505 12.555 19 7 C20.32 6.67 21.64 6.34 23 6 C23.495 6.99 23.495 6.99 24 8 C24.33 6.02 24.66 4.04 25 2 C27.97 1.34 30.94 0.68 34 0 C35.58076658 3.45792689 36.51579638 6.1831068 36 10 C35.01 10.66 34.02 11.32 33 12 C33.66 13.65 34.32 15.3 35 17 C31.7 18.32 28.4 19.64 25 21 C25.99 22.65 26.98 24.3 28 26 C28.38671875 25.55527344 28.7734375 25.11054688 29.171875 24.65234375 C29.69265625 24.08644531 30.2134375 23.52054688 30.75 22.9375 C31.26046875 22.36902344 31.7709375 21.80054687 32.296875 21.21484375 C34 20 34 20 36.140625 20.12890625 C37.06101562 20.56009766 37.06101562 20.56009766 38 21 C38.495 22.485 38.495 22.485 39 24 C39.721875 23.731875 40.44375 23.46375 41.1875 23.1875 C44 23 44 23 46.8125 25.4375 C47.534375 26.283125 48.25625 27.12875 49 28 C47.50871999 31.79598549 45.34266559 33.71720399 42 36 C41.01 36 40.02 36 39 36 C38.34 36.66 37.68 37.32 37 38 C33.71711224 37.88679697 32.69645513 36.71715137 30.25 34.4375 C29.13625 33.2309375 29.13625 33.2309375 28 32 C27.01 33.65 26.02 35.3 25 37 C28.3 38.32 31.6 39.64 35 41 C34.34 42.65 33.68 44.3 33 46 C33.99 46.66 34.98 47.32 36 48 C35.67 50.97 35.34 53.94 35 57 C30.59232396 58.10191901 29.1077065 57.58706842 25 56 C24.505 53.03 24.505 53.03 24 50 C23.34 50.66 22.68 51.32 22 52 C21.01 51.67 20.02 51.34 19 51 C19.33 47.37 19.66 43.74 20 40 C18.02 40 16.04 40 14 40 C14.33 43.63 14.66 47.26 15 51 C13.02 51.495 13.02 51.495 11 52 C11 51.34 11 50.68 11 50 C10.34 50 9.68 50 9 50 C9 51.98 9 53.96 9 56 C6.03 56.66 3.06 57.32 0 58 C-1.58076658 54.54207311 -2.51579638 51.8168932 -2 48 C-1.01 47.34 -0.02 46.68 1 46 C0.34 44.35 -0.32 42.7 -1 41 C2.3 39.68 5.6 38.36 9 37 C7.515 34.525 7.515 34.525 6 32 C5.61328125 32.44472656 5.2265625 32.88945313 4.828125 33.34765625 C4.30734375 33.91355469 3.7865625 34.47945312 3.25 35.0625 C2.73953125 35.63097656 2.2290625 36.19945312 1.703125 36.78515625 C-0 38 -0 38 -2.078125 37.80859375 C-4 37 -4 37 -6 35 C-7.485 35.495 -7.485 35.495 -9 36 C-10.98 34.02 -12.96 32.04 -15 30 C-13.72431911 27.15425032 -12.58503711 24.81910019 -10 23 C-7.3125 23.3125 -7.3125 23.3125 -5 24 C-4.34 22.68 -3.68 21.36 -3 20 C1.24822374 20.47202486 3.19989709 22.96655518 6 26 C6.99 24.35 7.98 22.7 9 21 C4.05 19.02 4.05 19.02 -1 17 C-0.34 15.35 0.32 13.7 1 12 C0.01 11.34 -0.98 10.68 -2 10 C-1.125 2.25 -1.125 2.25 0 0 Z " fill="#7AE3F8" transform="translate(15,3)"/>
<path d="M0 0 C2.97 0.66 5.94 1.32 9 2 C9.33 3.65 9.66 5.3 10 7 C10.66 6.67 11.32 6.34 12 6 C12.99 6.33 13.98 6.66 15 7 C14.67 10.63 14.34 14.26 14 18 C15.98 18 17.96 18 20 18 C19.505 12.555 19.505 12.555 19 7 C20.32 6.67 21.64 6.34 23 6 C23.495 6.99 23.495 6.99 24 8 C24.33 6.02 24.66 4.04 25 2 C27.97 1.34 30.94 0.68 34 0 C35.58076658 3.45792689 36.51579638 6.1831068 36 10 C35.01 10.66 34.02 11.32 33 12 C33.66 13.65 34.32 15.3 35 17 C31.7 18.32 28.4 19.64 25 21 C25.99 22.65 26.98 24.3 28 26 C28.38671875 25.55527344 28.7734375 25.11054688 29.171875 24.65234375 C29.69265625 24.08644531 30.2134375 23.52054688 30.75 22.9375 C31.26046875 22.36902344 31.7709375 21.80054687 32.296875 21.21484375 C34 20 34 20 36.140625 20.12890625 C37.06101562 20.56009766 37.06101562 20.56009766 38 21 C38.495 22.485 38.495 22.485 39 24 C40.65 23.67 42.3 23.34 44 23 C46.475 25.97 46.475 25.97 49 29 C27.88 29 6.76 29 -15 29 C-13.35 27.02 -11.7 25.04 -10 23 C-8.35 23.33 -6.7 23.66 -5 24 C-4.34 22.68 -3.68 21.36 -3 20 C1.24822374 20.47202486 3.19989709 22.96655518 6 26 C6.99 24.35 7.98 22.7 9 21 C4.05 19.02 4.05 19.02 -1 17 C-0.34 15.35 0.32 13.7 1 12 C0.01 11.34 -0.98 10.68 -2 10 C-1.125 2.25 -1.125 2.25 0 0 Z " fill="#A7EBFA" transform="translate(15,3)"/>
</svg>
