<?xml version="1.0" encoding="UTF-8"?>
<svg version="1.1" xmlns="http://www.w3.org/2000/svg" width="64" height="64">
<path d="M0 0 C-0.79019531 0.62390625 -1.58039062 1.2478125 -2.39453125 1.890625 C-4.92708788 3.85276298 -4.92708788 3.85276298 -6.6875 5.75 C-8 7 -8 7 -10 7 C-10.68346682 8.65984798 -11.34588315 10.32836805 -12 12 C-12.391875 12.9075 -12.78375 13.815 -13.1875 14.75 C-14.61670389 20.46681555 -13.97279842 25.69419748 -11.125 30.875 C-7.24665991 36.57844131 -3.73702631 38.59066961 3 40 C8.80668003 40.3537064 13.41787735 38.8594994 18.20703125 35.609375 C20.80495072 33.27747343 22.42829016 30.62133905 24.08984375 27.57421875 C24.39019531 27.05472656 24.69054688 26.53523438 25 26 C25.33 26 25.66 26 26 26 C26.44048094 34.6016139 26.54692729 41.52150116 22 49 C21.649375 49.62390625 21.29875 50.2478125 20.9375 50.890625 C16.64798979 57.74192603 9.71014583 61.94082691 2 64 C-9.41118939 65.01695574 -18.19261809 64.13468068 -27.25 56.6875 C-33.56827544 50.79715557 -37.55018298 45.0473654 -38.3359375 36.23046875 C-38.36568123 34.88307786 -38.37820656 33.53521534 -38.375 32.1875 C-38.37258301 31.12909912 -38.37258301 31.12909912 -38.37011719 30.04931641 C-38.2325718 24.18475882 -37.05219358 19.9451917 -34 15 C-33.443125 13.948125 -32.88625 12.89625 -32.3125 11.8125 C-23.70815118 1.34775144 -12.8367502 -0.52834185 0 0 Z " fill="#FDBE00" transform="translate(38,0)"/>
<path d="M0 0 C0.33 0 0.66 0 1 0 C1.44048094 8.6016139 1.54692729 15.52150116 -3 23 C-3.5259375 23.93585937 -3.5259375 23.93585937 -4.0625 24.890625 C-7.86469976 30.96358296 -13.62730623 34.48572933 -20.0625 37.375 C-23 38 -23 38 -31 38 C-31 29.42 -31 20.84 -31 12 C-26.545 12.99 -26.545 12.99 -22 14 C-15.16337108 13.90634755 -10.16840382 12.63917728 -5 8 C-3.45040418 5.9236185 -2.14981834 3.84763296 -0.91015625 1.57421875 C-0.60980469 1.05472656 -0.30945313 0.53523438 0 0 Z " fill="#FEA000" transform="translate(63,26)"/>
</svg>
