<?xml version="1.0" encoding="UTF-8"?>
<!DOCTYPE svg PUBLIC "-//W3C//DTD SVG 1.1//EN" "http://www.w3.org/Graphics/SVG/1.1/DTD/svg11.dtd">
<svg xmlns="http://www.w3.org/2000/svg" version="1.1" width="64px" height="64px" style="shape-rendering:geometricPrecision; text-rendering:geometricPrecision; image-rendering:optimizeQuality; fill-rule:evenodd; clip-rule:evenodd" xmlns:xlink="http://www.w3.org/1999/xlink">
<g><path style="opacity:0.975" fill="#fdde4c" d="M 43.5,-0.5 C 46.1667,-0.5 48.8333,-0.5 51.5,-0.5C 49.9049,2.28537 48.9049,5.28537 48.5,8.5C 48.5,14.8333 48.5,21.1667 48.5,27.5C 47.2921,26.7659 45.9587,26.4326 44.5,26.5C 43.134,20.8142 39.4673,18.1476 33.5,18.5C 31.8553,9.45291 35.1886,3.11958 43.5,-0.5 Z"/></g>
<g><path style="opacity:1" fill="#febd35" d="M 48.5,8.5 C 50.752,15.802 55.752,18.802 63.5,17.5C 63.5,18.5 63.5,19.5 63.5,20.5C 61.0099,25.4216 57.0099,28.4216 51.5,29.5C 49.9731,29.573 48.9731,28.9063 48.5,27.5C 48.5,21.1667 48.5,14.8333 48.5,8.5 Z"/></g>
<g><path style="opacity:0.98" fill="#4a696f" d="M 25.5,15.5 C 25.5,25.5 25.5,35.5 25.5,45.5C 19.4908,45.6662 13.4908,45.4995 7.5,45C 3.89071,44.3751 1.22405,42.5418 -0.5,39.5C -0.5,36.5 -0.5,33.5 -0.5,30.5C 1.83673,28.3336 4.33673,26.3336 7,24.5C 10.4218,15.7051 16.5885,12.7051 25.5,15.5 Z"/></g>
<g><path style="opacity:1" fill="#394a4a" d="M 25.5,15.5 C 27.7808,17.4279 30.4475,18.4279 33.5,18.5C 39.4673,18.1476 43.134,20.8142 44.5,26.5C 45.9587,26.4326 47.2921,26.7659 48.5,27.5C 48.9731,28.9063 49.9731,29.573 51.5,29.5C 54.2663,39.9801 50.2663,45.3135 39.5,45.5C 37.2743,44.2437 34.941,44.2437 32.5,45.5C 30.1667,45.5 27.8333,45.5 25.5,45.5C 25.5,35.5 25.5,25.5 25.5,15.5 Z"/></g>
<g><path style="opacity:0.842" fill="#fcba33" d="M 39.5,45.5 C 38.5244,46.8149 37.5244,48.1482 36.5,49.5C 38.5,50.8333 40.5,52.1667 42.5,53.5C 39.4778,56.8533 36.4778,60.1866 33.5,63.5C 33.1667,63.5 32.8333,63.5 32.5,63.5C 31.7101,62.2058 30.7101,61.0391 29.5,60C 31.1667,58.3333 32.8333,56.6667 34.5,55C 32.3295,53.4138 29.9962,52.0804 27.5,51C 29.3734,49.2962 31.0401,47.4628 32.5,45.5C 34.941,44.2437 37.2743,44.2437 39.5,45.5 Z"/></g>
<g><path style="opacity:0.809" fill="#65e7ff" d="M 9.5,63.5 C 8.16667,63.5 6.83333,63.5 5.5,63.5C 5.38929,62.8826 5.05596,62.3826 4.5,62C 6.10834,57.4813 8.275,53.3147 11,49.5C 12.395,49.7804 13.5617,50.4471 14.5,51.5C 12.8182,55.5258 11.1515,59.5258 9.5,63.5 Z"/></g>
<g><path style="opacity:0.782" fill="#64e6ff" d="M 20.5,63.5 C 19.5,63.5 18.5,63.5 17.5,63.5C 17.0766,62.7354 16.7432,61.9021 16.5,61C 17.6983,56.7731 19.5316,52.9398 22,49.5C 23.395,49.7804 24.5617,50.4471 25.5,51.5C 23.8259,55.529 22.1593,59.529 20.5,63.5 Z"/></g>
</svg>
