<?xml version="1.0" encoding="UTF-8"?>
<svg version="1.1" xmlns="http://www.w3.org/2000/svg" width="64" height="64">
<path d="M0 0 C-0.226875 1.19625 -0.45375 2.3925 -0.6875 3.625 C-1.22518868 7.8962171 -0.42444116 10.36333825 2 14 C5.03525486 16.02350324 6.19426202 16.32124018 9.6875 16.625 C10.49574219 16.69976563 11.30398437 16.77453125 12.13671875 16.8515625 C12.75160156 16.90054687 13.36648437 16.94953125 14 17 C13.54726428 21.866909 12.35474936 24.4419325 9 28 C8.01 28.495 8.01 28.495 7 29 C7.05220703 29.87011719 7.05220703 29.87011719 7.10546875 30.7578125 C7.28555358 35.95454608 7.0758722 39.59124984 4 44 C-1.07634499 48.27350361 -4.99874919 48.60355983 -11.34375 48.56640625 C-12.23106812 48.57260483 -13.11838623 48.57880341 -14.03259277 48.58518982 C-15.90176297 48.59226876 -17.77099648 48.5891477 -19.64013672 48.57641602 C-22.49174461 48.56254017 -25.34007459 48.59665936 -28.19140625 48.63476562 C-30.01302163 48.63571684 -31.8346411 48.63385785 -33.65625 48.62890625 C-34.50328491 48.64216446 -35.35031982 48.65542267 -36.22302246 48.66908264 C-40.44865417 48.6029675 -43.17434886 48.2924711 -46.52148438 45.58569336 C-50.37284332 41.56779121 -50.33967781 38.87810331 -50.28515625 33.48046875 C-49.88136394 29.96802881 -48.61222617 28.32197882 -46 26 C-42.94024557 23.99203616 -41.85514114 24 -38 24 C-37.95875 23.13375 -37.9175 22.2675 -37.875 21.375 C-36.74242083 17.00648033 -34.54721389 14.70894195 -31 12 C-27.77046601 10.92348867 -26.03081877 11.13692501 -22.6875 11.4375 C-18.50410702 11.55424977 -18.50410702 11.55424977 -15.15625 9.328125 C-14.17813 7.90256713 -13.23479399 6.45250317 -12.328125 4.98046875 C-9.37938776 0.58338116 -5.03577551 -0.44433313 0 0 Z " fill="#BEDFFD" transform="translate(50,8)"/>
<path d="M0 0 C0 12.21 0 24.42 0 37 C-5.011875 37.1546875 -5.011875 37.1546875 -10.125 37.3125 C-11.16672363 37.35802002 -12.20844727 37.40354004 -13.28173828 37.45043945 C-17.78746204 37.51760498 -21.02445442 37.52926199 -24.6171875 34.60546875 C-28.33561312 30.53958369 -28.33927581 27.83830539 -28.28515625 22.48046875 C-27.88136394 18.96802881 -26.61222617 17.32197882 -24 15 C-20.94024557 12.99203616 -19.85514114 13 -16 13 C-15.95875 12.13375 -15.9175 11.2675 -15.875 10.375 C-14.74242083 6.00648033 -12.54721389 3.70894195 -9 1 C-6 0 -6 0 0 0 Z " fill="#DDEAF1" transform="translate(28,19)"/>
<path d="M0 0 C-0.226875 1.19625 -0.45375 2.3925 -0.6875 3.625 C-1.22518868 7.8962171 -0.42444116 10.36333825 2 14 C5.03525486 16.02350324 6.19426202 16.32124018 9.6875 16.625 C10.49574219 16.69976563 11.30398437 16.77453125 12.13671875 16.8515625 C12.75160156 16.90054687 13.36648437 16.94953125 14 17 C13.54936121 21.84436703 12.46006039 24.53993961 9 28 C6.75 28.8125 6.75 28.8125 5 29 C4.773125 28.38125 4.54625 27.7625 4.3125 27.125 C2.5654955 24.29651652 1.15778883 23.93298306 -2 23 C-3.010625 22.9175 -4.02125 22.835 -5.0625 22.75 C-9.16693251 21.70205978 -9.87402145 19.54329758 -12 16 C-14.10575643 14.16699091 -14.10575643 14.16699091 -16 13 C-15.56534864 8.07395127 -13.40373025 5.48108776 -10 2 C-6.57507696 0.11629233 -3.87940869 -0.2216805 0 0 Z " fill="#FEBA36" transform="translate(50,8)"/>
</svg>
