<?xml version="1.0" encoding="UTF-8"?>
<svg version="1.1" xmlns="http://www.w3.org/2000/svg" width="64" height="64">
<path d="M0 0 C2.42289298 1.06607291 3.92751435 2.29019934 6 4 C9.09783987 5.17454633 9.09783987 5.17454633 12.9375 5.25 C16.35856947 5.63431904 16.8763974 5.87948747 19.5 8.4375 C21 11 21 11 21 13 C22.1446875 13.37125 22.1446875 13.37125 23.3125 13.75 C26.37754038 15.17560018 27.46110282 16.00320024 29 19 C29.4975909 22.35873859 29.70307586 24.7689438 27.98046875 27.78515625 C26.6875 29.4375 26.6875 29.4375 24 32 C23.01 32 22.02 32 21 32 C21 32.66 21 33.32 21 34 C21.598125 34.2475 22.19625 34.495 22.8125 34.75 C25.37663767 36.21522152 26.48426322 37.47377203 28 40 C28.12375 40.86625 28.2475 41.7325 28.375 42.625 C28.58125 43.40875 28.7875 44.1925 29 45 C31.42383077 46.16953416 31.42383077 46.16953416 34 47 C36.01471597 50.02207395 36.33719034 50.91726699 36.4375 54.375 C36.49744141 55.50035156 36.49744141 55.50035156 36.55859375 56.6484375 C35.67180178 60.38164563 34.03587373 61.67326314 31 64 C27.47209263 64.75604381 24.00398682 64.7246876 20.40625 64.69921875 C18.86982849 64.70995171 18.86982849 64.70995171 17.30236816 64.72090149 C15.14055247 64.72867284 12.9786582 64.7236784 10.81689453 64.70678711 C7.51053812 64.68756128 4.20838455 64.72695443 0.90234375 64.77148438 C-1.20052333 64.77177474 -3.30339427 64.76863468 -5.40625 64.76171875 C-6.39282593 64.77700119 -7.37940186 64.79228363 -8.39587402 64.80802917 C-15.03732751 64.69534383 -15.03732751 64.69534383 -17.74658203 62.73843384 C-20.1448241 60.02222534 -20.99718067 58.01785578 -21.5625 54.4375 C-20.90764963 50.43563662 -19.93155487 48.76869071 -17 46 C-15.02 45.505 -15.02 45.505 -13 45 C-13 40.71 -13 36.42 -13 32 C-14.546875 32.103125 -16.09375 32.20625 -17.6875 32.3125 C-21.49767423 32.29088199 -22.78892503 32.13086648 -26.125 30.0625 C-28.63350938 25.96526802 -29.08520697 22.68843325 -28 18 C-25.625 14.9375 -25.625 14.9375 -23 13 C-22.34 13 -21.68 13 -21 13 C-20.79375 11.948125 -20.5875 10.89625 -20.375 9.8125 C-19.12049188 5.33081518 -16.73490493 3.64555766 -13 1 C-9.06093087 -0.96953456 -4.29297761 -0.46082811 0 0 Z " fill="#F5F9FB" transform="translate(28,0)"/>
<path d="M0 0 C2.42289298 1.06607291 3.92751435 2.29019934 6 4 C9.09783987 5.17454633 9.09783987 5.17454633 12.9375 5.25 C16.35856947 5.63431904 16.8763974 5.87948747 19.5 8.4375 C21 11 21 11 21 13 C22.1446875 13.37125 22.1446875 13.37125 23.3125 13.75 C26.37754038 15.17560018 27.46110282 16.00320024 29 19 C29.5032141 22.39669516 29.75450877 24.80274129 27.875 27.78515625 C26.65424696 29.25214072 25.33273446 30.63394718 24 32 C21.75 31.875 21.75 31.875 19 31 C18.071875 29.576875 18.071875 29.576875 17.125 28.125 C14.59401567 24.40296422 12.27803112 22.99224296 8 22 C2.80453986 21.24824532 -1.47454147 21.1964686 -5.9375 24.1875 C-8.2582606 26.05477865 -9.00431666 27.00971248 -10.25 29.8125 C-12 32 -12 32 -14.4453125 32.48828125 C-19.14182416 32.70745179 -22.12177809 32.53382116 -26.1875 30.0625 C-28.61736334 25.95686884 -29.0784388 22.65919264 -28 18 C-25.625 14.9375 -25.625 14.9375 -23 13 C-22.34 13 -21.68 13 -21 13 C-20.79375 11.948125 -20.5875 10.89625 -20.375 9.8125 C-19.12049188 5.33081518 -16.73490493 3.64555766 -13 1 C-9.06093087 -0.96953456 -4.29297761 -0.46082811 0 0 Z " fill="#F5FAFB" transform="translate(28,0)"/>
<path d="M0 0 C2.97543414 2.00668814 4.74773868 3.7950935 6.6875 6.8125 C6.831875 7.699375 6.97625 8.58625 7.125 9.5 C7.310625 10.263125 7.49625 11.02625 7.6875 11.8125 C10.11133077 12.98203416 10.11133077 12.98203416 12.6875 13.8125 C14.70221597 16.83457395 15.02469034 17.72976699 15.125 21.1875 C15.18494141 22.31285156 15.18494141 22.31285156 15.24609375 23.4609375 C14.6088031 26.14379742 13.70131522 27.96071369 11.65112305 29.83984375 C6.90880006 32.18889445 1.02596808 31.29820896 -4.125 31.125 C-5.39021484 31.10244141 -6.65542969 31.07988281 -7.95898438 31.05664062 C-11.07802619 30.99779078 -14.19465902 30.9156137 -17.3125 30.8125 C-17.43616555 26.73762506 -17.52686476 22.66347699 -17.5871582 18.5871582 C-17.61229219 17.20089696 -17.64640592 15.81476813 -17.68969727 14.42895508 C-17.75038396 12.43628963 -17.77604879 10.44265467 -17.80078125 8.44921875 C-17.82696533 7.24998779 -17.85314941 6.05075684 -17.88012695 4.81518555 C-17.3125 1.8125 -17.3125 1.8125 -14.92236328 -0.07739258 C-9.83570339 -2.24100741 -5.14050448 -1.84282236 0 0 Z " fill="#DBEDFE" transform="translate(49.3125,33.1875)"/>
<path d="M0 0 C2.475 0.99 2.475 0.99 5 2 C7.07166268 2.26198762 7.07166268 2.26198762 9.0625 2.3125 C13 3 13 3 15.5 5.4375 C17 8 17 8 17 10 C17.763125 10.2475 18.52625 10.495 19.3125 10.75 C22.37754038 12.17560018 23.46110282 13.00320024 25 16 C25.5032141 19.39669516 25.75450877 21.80274129 23.875 24.78515625 C22.65424696 26.25214072 21.33273446 27.63394718 20 29 C17.75 28.875 17.75 28.875 15 28 C14.38125 27.05125 13.7625 26.1025 13.125 25.125 C9.90569052 20.39072136 6.02447166 19.40489433 0.5625 18.3125 C-0.283125 18.209375 -1.12875 18.10625 -2 18 C-1.34 17.67 -0.68 17.34 0 17 C0 11.39 0 5.78 0 0 Z " fill="#DBEDFD" transform="translate(32,3)"/>
<path d="M0 0 C4.35851843 2.44006306 6.48337097 6.13412905 8.6875 10.5 C7.89085937 10.45359375 7.09421875 10.4071875 6.2734375 10.359375 C-0.35884858 10.13345771 -4.25179165 10.08810041 -9.3125 14.5 C-12.74602993 16.78901995 -14.32715642 16.43678263 -18.3046875 16.3046875 C-21.45206374 16.6108525 -23.14316434 18.33066434 -25.3125 20.5 C-25.89377704 14.64417206 -26.20825157 9.91207888 -22.625 5 C-16.36532386 -2.08752194 -8.88051103 -3.78430868 0 0 Z " fill="#FEE26C" transform="translate(40.3125,22.5)"/>
<path d="M0 0 C5.44250504 0.4354004 8.80370384 1.45646102 13 5 C14.57397258 7.27080874 15.75828789 9.51657577 17 12 C16.19175781 11.97679687 15.38351563 11.95359375 14.55078125 11.9296875 C13.48214844 11.91164063 12.41351563 11.89359375 11.3125 11.875 C10.25675781 11.85179687 9.20101562 11.82859375 8.11328125 11.8046875 C4.58694884 11.86311002 4.58694884 11.86311002 0 14 C0 9.38 0 4.76 0 0 Z " fill="#FEB443" transform="translate(32,21)"/>
</svg>
