<?xml version="1.0" encoding="UTF-8"?>
<!DOCTYPE svg PUBLIC "-//W3C//DTD SVG 1.1//EN" "http://www.w3.org/Graphics/SVG/1.1/DTD/svg11.dtd">
<svg xmlns="http://www.w3.org/2000/svg" version="1.1" width="64px" height="64px" style="shape-rendering:geometricPrecision; text-rendering:geometricPrecision; image-rendering:optimizeQuality; fill-rule:evenodd; clip-rule:evenodd" xmlns:xlink="http://www.w3.org/1999/xlink">
<g><path style="opacity:0.972" fill="#49686e" d="M 31.5,3.5 C 31.5,15.5 31.5,27.5 31.5,39.5C 22.4178,39.9137 13.4178,39.4137 4.5,38C 2.59809,36.2703 0.93142,34.437 -0.5,32.5C -0.5,29.1667 -0.5,25.8333 -0.5,22.5C 1.6392,19.2601 4.6392,17.2601 8.5,16.5C 9.24718,6.91932 14.4138,1.91932 24,1.5C 26.8655,1.29989 29.3655,1.96656 31.5,3.5 Z"/></g>
<g><path style="opacity:1" fill="#384a4a" d="M 31.5,3.5 C 33.7742,4.59704 35.9409,5.93037 38,7.5C 46.4282,5.4238 52.2615,8.4238 55.5,16.5C 58.9913,17.5608 61.658,19.5608 63.5,22.5C 63.5,25.8333 63.5,29.1667 63.5,32.5C 61.6049,35.5567 58.9382,37.7233 55.5,39C 47.5069,39.4997 39.5069,39.6664 31.5,39.5C 31.5,27.5 31.5,15.5 31.5,3.5 Z"/></g>
<g><path style="opacity:0.813" fill="#66e7ff" d="M 11.5,43.5 C 13.3109,43.572 14.6443,44.4053 15.5,46C 13.6667,50.8333 11.8333,55.6667 10,60.5C 8.13163,61.6719 6.29829,61.5053 4.5,60C 6.73887,54.4471 9.0722,48.9471 11.5,43.5 Z"/></g>
<g><path style="opacity:0.794" fill="#65e6ff" d="M 22.5,43.5 C 24.5666,43.5323 25.8999,44.5323 26.5,46.5C 25.0999,50.5332 23.5999,54.5332 22,58.5C 20.3097,62.1906 18.4763,62.3573 16.5,59C 18.41,53.7654 20.41,48.5987 22.5,43.5 Z"/></g>
<g><path style="opacity:0.796" fill="#4dc4ff" d="M 44.5,43.5 C 46.7144,43.2907 48.381,44.124 49.5,46C 47.6381,50.8905 45.6381,55.7238 43.5,60.5C 41.4529,61.9039 39.7862,61.5706 38.5,59.5C 41.076,54.3542 43.076,49.0209 44.5,43.5 Z"/></g>
<g><path style="opacity:1" fill="#51c9ff" d="M 31.5,61.5 C 31.5,57.8333 31.5,54.1667 31.5,50.5C 31.818,47.6946 32.9847,45.3613 35,43.5C 36.395,43.7804 37.5617,44.4471 38.5,45.5C 36.1427,50.9345 33.8094,56.2678 31.5,61.5 Z"/></g>
<g><path style="opacity:0.752" fill="#66e5ff" d="M 31.5,50.5 C 31.5,54.1667 31.5,57.8333 31.5,61.5C 29.6536,61.7778 28.3202,61.1112 27.5,59.5C 28.609,56.2919 29.9423,53.2919 31.5,50.5 Z"/></g>
</svg>
