<?xml version="1.0" encoding="UTF-8"?>
<svg version="1.1" xmlns="http://www.w3.org/2000/svg" width="64" height="64">
<path d="M0 0 C3.48871618 2.79097294 5.77035435 5.49856304 7.1875 9.75 C8.9003787 10.44173947 10.6142605 11.13124019 12.3359375 11.80078125 C16.38897172 13.87860259 18.76626188 17.48628564 20.1875 21.75 C20.97125 22.183125 21.755 22.61625 22.5625 23.0625 C25.97307415 25.25501196 26.88716951 26.92124911 28.1875 30.75 C28.4818308 35.16496203 27.72071562 37.98350254 25.1875 41.625 C22.20302055 43.73900627 21.08057403 44.05583429 17.625 44.5625 C14.68505832 45.04759038 13.56980901 45.25686205 11.71875 47.64453125 C10.73302035 49.65471565 9.89362752 51.62667948 9.1875 53.75 C7.8675 53.42 6.5475 53.09 5.1875 52.75 C5.71018466 49.98723823 6.29619587 47.4239124 7.1875 44.75 C4.12350134 45.41970511 4.12350134 45.41970511 3.01953125 47.59765625 C2.68308594 48.32855469 2.34664062 49.05945312 2 49.8125 C1.65582031 50.54597656 1.31164062 51.27945313 0.95703125 52.03515625 C0.70308594 52.60105469 0.44914062 53.16695312 0.1875 53.75 C-1.4625 53.42 -3.1125 53.09 -4.8125 52.75 C-3.8225 50.11 -2.8325 47.47 -1.8125 44.75 C-3.1325 44.75 -4.4525 44.75 -5.8125 44.75 C-6.8025 47.72 -7.7925 50.69 -8.8125 53.75 C-10.4625 53.42 -12.1125 53.09 -13.8125 52.75 C-13.1525 50.44 -12.4925 48.13 -11.8125 45.75 C-12.48796875 45.70101562 -13.1634375 45.65203125 -13.859375 45.6015625 C-14.75140625 45.52679688 -15.6434375 45.45203125 -16.5625 45.375 C-17.44421875 45.30539063 -18.3259375 45.23578125 -19.234375 45.1640625 C-21.8637314 44.74177193 -23.57587938 44.17949231 -25.8125 42.75 C-28.2591978 39.07995329 -28.65045144 36.01442613 -27.8125 31.75 C-25.4375 28.75 -25.4375 28.75 -22.8125 26.75 C-22.1525 26.75 -21.4925 26.75 -20.8125 26.75 C-21.10125 26.193125 -21.39 25.63625 -21.6875 25.0625 C-24.33393315 19.62260963 -25.59283055 15.79756173 -24.8125 9.75 C-22.85757644 4.36846884 -19.84660895 1.53482623 -14.8125 -1.25 C-9.80572994 -2.91892335 -4.78837504 -2.12816668 0 0 Z " fill="#D2D2D8" transform="translate(34.8125,10.25)"/>
<path d="M0 0 C0.66 0 1.32 0 2 0 C2.02465392 4.53897705 2.04283789 9.07791543 2.05493164 13.61694336 C2.0599714 15.16219766 2.0668032 16.70744716 2.07543945 18.25268555 C2.08752076 20.46925029 2.09323173 22.68575218 2.09765625 24.90234375 C2.10281754 25.5971434 2.10797882 26.29194305 2.11329651 27.00779724 C2.11349277 28.6722933 2.06189129 30.33665499 2 32 C1 33 1 33 -1.5625 33.0625 C-2.366875 33.041875 -3.17125 33.02125 -4 33 C-4.99 35.97 -5.98 38.94 -7 42 C-8.65 41.67 -10.3 41.34 -12 41 C-11.34 38.69 -10.68 36.38 -10 34 C-10.67546875 33.95101562 -11.3509375 33.90203125 -12.046875 33.8515625 C-12.93890625 33.77679688 -13.8309375 33.70203125 -14.75 33.625 C-15.63171875 33.55539063 -16.5134375 33.48578125 -17.421875 33.4140625 C-20.0512314 32.99177193 -21.76337938 32.42949231 -24 31 C-26.4466978 27.32995329 -26.83795144 24.26442613 -26 20 C-23.625 17 -23.625 17 -21 15 C-20.34 15 -19.68 15 -19 15 C-19 14.34 -19 13.68 -19 13 C-18.34 13 -17.68 13 -17 13 C-16.63841797 12.05447266 -16.63841797 12.05447266 -16.26953125 11.08984375 C-15 9 -15 9 -13.01171875 8.12890625 C-11.86123047 7.84853516 -11.86123047 7.84853516 -10.6875 7.5625 C-6.31465294 6.28796648 -3.97627464 4.53432614 -1 1 C-0.67 0.67 -0.34 0.34 0 0 Z " fill="#EAEAEE" transform="translate(33,22)"/>
<path d="M0 0 C3.84298533 3.07438826 6.16494017 5.93374319 7.1875 10.75 C6.59582031 10.83636719 6.00414063 10.92273437 5.39453125 11.01171875 C-0.40349306 12.04268881 -2.6548016 13.49089432 -6.8125 17.75 C-9.37269069 18.90779324 -11.94491826 19.85633662 -14.60546875 20.7578125 C-17.13687693 21.66083116 -17.13687693 21.66083116 -18.8125 24.75 C-19.8025 24.75 -20.7925 24.75 -21.8125 24.75 C-24.35188574 19.67122852 -25.81147133 15.45199366 -24.8125 9.75 C-22.8764713 4.36849649 -19.83475875 1.5282708 -14.8125 -1.25 C-9.80572994 -2.91892335 -4.78837504 -2.12816668 0 0 Z " fill="#FDD943" transform="translate(34.8125,10.25)"/>
<path d="M0 0 C9 1 9 1 11.15625 2.48828125 C11.82140625 3.39126953 11.82140625 3.39126953 12.5 4.3125 C12.9640625 4.90675781 13.428125 5.50101563 13.90625 6.11328125 C15.04337227 8.07481717 15.56942029 9.78349307 16 12 C15.40832031 12.08636719 14.81664062 12.17273437 14.20703125 12.26171875 C8.57735973 13.26275333 5.85743834 14.5581013 2 19 C1.34 19 0.68 19 0 19 C0 12.73 0 6.46 0 0 Z " fill="#FCBF2D" transform="translate(26,9)"/>
<path d="M0 0 C1.32 0 2.64 0 4 0 C3.39009109 3.55780196 2.4216319 6.6828589 1 10 C-0.65 9.67 -2.3 9.34 -4 9 C-2.25 2.25 -2.25 2.25 0 0 Z " fill="#B1D2FE" transform="translate(25,54)"/>
<path d="M0 0 C1.32 0 2.64 0 4 0 C3.49287967 3.71888239 2.88391785 6.73454239 1 10 C-0.65 9.67 -2.3 9.34 -4 9 C-3.52418802 7.68628013 -3.04424851 6.37405454 -2.5625 5.0625 C-2.29566406 4.33160156 -2.02882813 3.60070313 -1.75390625 2.84765625 C-1 1 -1 1 0 0 Z " fill="#9AC5FD" transform="translate(34,54)"/>
<path d="M0 0 C1.98 0 3.96 0 6 0 C5.60348083 1.31872662 5.18201309 2.62997101 4.75 3.9375 C4.40195312 5.03384766 4.40195312 5.03384766 4.046875 6.15234375 C3 8 3 8 0.890625 8.75390625 C-0.04523437 8.87572266 -0.04523437 8.87572266 -1 9 C-2.0326802 6.21176345 -2.04509293 5.1322726 -1.0625 2.25 C-0.711875 1.5075 -0.36125 0.765 0 0 Z " fill="#74AEFF" transform="translate(42,55)"/>
<path d="M0 0 C2.31 0 4.62 0 7 0 C7 1.65 7 3.3 7 5 C4.69 5 2.38 5 0 5 C0 3.35 0 1.7 0 0 Z " fill="#FCBD2C" transform="translate(1,22)"/>
<path d="M0 0 C2.0625 0.6875 2.0625 0.6875 4 2 C4.75 4.125 4.75 4.125 5 6 C3.35 6.33 1.7 6.66 0 7 C-2 4 -2 4 -2 1 C-1.34 0.67 -0.68 0.34 0 0 Z " fill="#FCBD2B" transform="translate(14,2)"/>
<path d="M0 0 C0.33 1.32 0.66 2.64 1 4 C-2.75 7 -2.75 7 -5 7 C-5.33 5.35 -5.66 3.7 -6 2 C-3 0 -3 0 0 0 Z " fill="#FCB928" transform="translate(10,32)"/>
<path d="M0 0 C0.99 0.33 1.98 0.66 3 1 C3.33 1.99 3.66 2.98 4 4 C2.1875 5.5625 2.1875 5.5625 0 7 C-0.99 6.67 -1.98 6.34 -3 6 C-3.33 5.01 -3.66 4.02 -4 3 C-2.1875 1.4375 -2.1875 1.4375 0 0 Z " fill="#F8B00A" transform="translate(45,10)"/>
<path d="M0 0 C1.98 0.66 3.96 1.32 6 2 C5.625 3.9375 5.625 3.9375 5 6 C4.01 6.495 4.01 6.495 3 7 C0.875 6.0625 0.875 6.0625 -1 5 C-0.67 3.35 -0.34 1.7 0 0 Z " fill="#FCBD2C" transform="translate(5,10)"/>
<path d="M0 0 C1.32 0.33 2.64 0.66 4 1 C3.67 2.65 3.34 4.3 3 6 C1.68 6.33 0.36 6.66 -1 7 C-1.625 5.1875 -1.625 5.1875 -2 3 C-1.34 2.01 -0.68 1.02 0 0 Z " fill="#F8AD0A" transform="translate(36,2)"/>
<path d="M0 0 C1.32 0 2.64 0 4 0 C4 1.98 4 3.96 4 6 C2.68 6 1.36 6 0 6 C0 4.02 0 2.04 0 0 Z " fill="#F9B518" transform="translate(24,0)"/>
</svg>
