<?xml version="1.0" encoding="UTF-8"?>
<!DOCTYPE svg PUBLIC "-//W3C//DTD SVG 1.1//EN" "http://www.w3.org/Graphics/SVG/1.1/DTD/svg11.dtd">
<svg xmlns="http://www.w3.org/2000/svg" version="1.1" width="64px" height="64px" style="shape-rendering:geometricPrecision; text-rendering:geometricPrecision; image-rendering:optimizeQuality; fill-rule:evenodd; clip-rule:evenodd" xmlns:xlink="http://www.w3.org/1999/xlink">
<g><path style="opacity:0.984" fill="#4a696e" d="M 31.5,5.5 C 31.8119,17.5803 31.4786,29.5803 30.5,41.5C 29.8333,41.5 29.1667,41.5 28.5,41.5C 26.1667,41.5 23.8333,41.5 21.5,41.5C 18.8333,41.5 16.1667,41.5 13.5,41.5C 7.16637,42.3333 2.4997,40 -0.5,34.5C -0.5,31.5 -0.5,28.5 -0.5,25.5C 0.856092,21.8183 3.52276,19.485 7.5,18.5C 10.8662,5.15456 18.8662,0.821226 31.5,5.5 Z"/></g>
<g><path style="opacity:1" fill="#384949" d="M 31.5,5.5 C 34.091,6.25429 35.9243,7.92096 37,10.5C 45.3894,6.96472 51.2227,9.46472 54.5,18C 58.3144,19.222 61.3144,21.3887 63.5,24.5C 63.5,27.8333 63.5,31.1667 63.5,34.5C 60.996,39.3265 56.996,41.6598 51.5,41.5C 48.8333,41.5 46.1667,41.5 43.5,41.5C 41.1667,41.5 38.8333,41.5 36.5,41.5C 34.5,41.5 32.5,41.5 30.5,41.5C 31.4786,29.5803 31.8119,17.5803 31.5,5.5 Z"/></g>
<g><path style="opacity:0.868" fill="#ffe34c" d="M 13.5,41.5 C 16.1667,41.5 18.8333,41.5 21.5,41.5C 20.3747,43.1288 19.0414,44.6288 17.5,46C 19.7173,47.2684 21.7173,48.7684 23.5,50.5C 20.8011,54.0332 17.6345,57.0332 14,59.5C 12.5659,59.0696 11.3992,58.2362 10.5,57C 12.3513,55.3163 14.018,53.4829 15.5,51.5C 13.2902,50.2339 11.2902,48.7339 9.5,47C 10.6502,45.019 11.9835,43.1857 13.5,41.5 Z"/></g>
<g><path style="opacity:0.829" fill="#ffbd32" d="M 43.5,41.5 C 46.1667,41.5 48.8333,41.5 51.5,41.5C 50.3747,43.1288 49.0414,44.6288 47.5,46C 49.7173,47.2684 51.7173,48.7684 53.5,50.5C 50.8011,54.0332 47.6345,57.0332 44,59.5C 42.5659,59.0696 41.3992,58.2362 40.5,57C 42.3513,55.3163 44.018,53.4829 45.5,51.5C 43.2902,50.2339 41.2902,48.7339 39.5,47C 40.6502,45.019 41.9835,43.1857 43.5,41.5 Z"/></g>
<g><path style="opacity:0.773" fill="#ffd845" d="M 28.5,41.5 C 29.1667,41.5 29.8333,41.5 30.5,41.5C 32.5,41.5 34.5,41.5 36.5,41.5C 35.3747,43.1288 34.0414,44.6288 32.5,46C 34.7173,47.2684 36.7173,48.7684 38.5,50.5C 35.8011,54.0332 32.6345,57.0332 29,59.5C 27.5659,59.0696 26.3992,58.2362 25.5,57C 27.3513,55.3163 29.018,53.4829 30.5,51.5C 28.2902,50.2339 26.2902,48.7339 24.5,47C 25.6502,45.019 26.9835,43.1857 28.5,41.5 Z"/></g>
</svg>
