<?xml version="1.0" encoding="UTF-8"?>
<!DOCTYPE svg PUBLIC "-//W3C//DTD SVG 1.1//EN" "http://www.w3.org/Graphics/SVG/1.1/DTD/svg11.dtd">
<svg xmlns="http://www.w3.org/2000/svg" version="1.1" width="64px" height="64px" style="shape-rendering:geometricPrecision; text-rendering:geometricPrecision; image-rendering:optimizeQuality; fill-rule:evenodd; clip-rule:evenodd" xmlns:xlink="http://www.w3.org/1999/xlink">
<g><path style="opacity:0.965" fill="#00465e" d="M 25.5,0.5 C 25.175,8.01905 25.5084,15.3524 26.5,22.5C 20.6712,23.6127 16.3378,26.946 13.5,32.5C 7.30961,33.7318 2.64294,31.7318 -0.5,26.5C -0.5,23.5 -0.5,20.5 -0.5,17.5C 2.15033,13.8332 5.817,11.6665 10.5,11C 12.7056,3.56012 17.7056,0.0601234 25.5,0.5 Z"/></g>
<g><path style="opacity:1" fill="#002e3e" d="M 25.5,0.5 C 33.0262,1.02576 37.3595,5.02576 38.5,12.5C 32.3598,13.3099 28.3598,16.6433 26.5,22.5C 25.5084,15.3524 25.175,8.01905 25.5,0.5 Z"/></g>
<g><path style="opacity:1" fill="#00465f" d="M 38.5,12.5 C 49.4682,12.8055 54.4682,18.4721 53.5,29.5C 57.8196,28.7494 61.1529,30.0827 63.5,33.5C 63.5,36.1667 63.5,38.8333 63.5,41.5C 62.6836,43.1436 61.3502,44.3103 59.5,45C 55.8484,45.4986 52.1817,45.6653 48.5,45.5C 46.8333,45.5 45.1667,45.5 43.5,45.5C 42.5,45.5 41.5,45.5 40.5,45.5C 39.8333,45.5 39.1667,45.5 38.5,45.5C 38.5,34.5 38.5,23.5 38.5,12.5 Z"/></g>
<g><path style="opacity:0.986" fill="#005f7e" d="M 38.5,12.5 C 38.5,23.5 38.5,34.5 38.5,45.5C 37.8333,45.5 37.1667,45.5 36.5,45.5C 35.5,45.5 34.5,45.5 33.5,45.5C 31.8333,45.5 30.1667,45.5 28.5,45.5C 18.1572,47.1506 13.1572,42.8173 13.5,32.5C 16.3378,26.946 20.6712,23.6127 26.5,22.5C 28.3598,16.6433 32.3598,13.3099 38.5,12.5 Z"/></g>
<g><path style="opacity:0.697" fill="#00bfef" d="M 28.5,45.5 C 30.1667,45.5 31.8333,45.5 33.5,45.5C 33.5,47.8333 33.5,50.1667 33.5,52.5C 31.8333,52.5 30.1667,52.5 28.5,52.5C 28.5,50.1667 28.5,47.8333 28.5,45.5 Z"/></g>
<g><path style="opacity:0.996" fill="#00b1e5" d="M 36.5,45.5 C 37.1667,45.5 37.8333,45.5 38.5,45.5C 39.1667,45.5 39.8333,45.5 40.5,45.5C 40.5,47.8333 40.5,50.1667 40.5,52.5C 39.1667,52.5 37.8333,52.5 36.5,52.5C 36.5,50.1667 36.5,47.8333 36.5,45.5 Z"/></g>
<g><path style="opacity:0.73" fill="#00a8de" d="M 43.5,45.5 C 45.1667,45.5 46.8333,45.5 48.5,45.5C 48.5,47.8333 48.5,50.1667 48.5,52.5C 46.8333,52.5 45.1667,52.5 43.5,52.5C 43.5,50.1667 43.5,47.8333 43.5,45.5 Z"/></g>
<g><path style="opacity:0.742" fill="#00a9de" d="M 43.5,54.5 C 45.1667,54.5 46.8333,54.5 48.5,54.5C 48.5,57.1667 48.5,59.8333 48.5,62.5C 46.8333,62.5 45.1667,62.5 43.5,62.5C 43.5,59.8333 43.5,57.1667 43.5,54.5 Z"/></g>
<g><path style="opacity:0.746" fill="#00bfef" d="M 28.5,54.5 C 30.1667,54.5 31.8333,54.5 33.5,54.5C 33.5,57.1667 33.5,59.8333 33.5,62.5C 31.8333,62.5 30.1667,62.5 28.5,62.5C 28.5,59.8333 28.5,57.1667 28.5,54.5 Z"/></g>
<g><path style="opacity:0.995" fill="#00b1e5" d="M 36.5,54.5 C 37.8333,54.5 39.1667,54.5 40.5,54.5C 40.5,57.1667 40.5,59.8333 40.5,62.5C 39.1667,62.5 37.8333,62.5 36.5,62.5C 36.5,59.8333 36.5,57.1667 36.5,54.5 Z"/></g>
</svg>
