<?xml version="1.0" encoding="UTF-8"?>
<svg version="1.1" xmlns="http://www.w3.org/2000/svg" width="64" height="64">
<path d="M0 0 C2.86892259 2.0143499 4.69896003 3.41954014 5.375 6.96875 C5.48774741 10.74578811 5.11043381 13.83434929 3 17 C3.66 17.99 4.32 18.98 5 20 C5.66923077 26.91538462 5.66923077 26.91538462 3.1875 30.9375 C-2.22374002 36.0395263 -11.92796096 34.30450656 -18.98657227 34.35009766 C-20.86527904 34.366653 -22.74392294 34.39393761 -24.62231445 34.43212891 C-27.33838393 34.48702793 -30.05298093 34.50878998 -32.76953125 34.5234375 C-33.60410355 34.54610687 -34.43867584 34.56877625 -35.29853821 34.59213257 C-39.50034911 34.57698724 -42.18967517 34.2852705 -45.53149414 31.60986328 C-48 29 -48 29 -48.7265625 26.71875 C-48.54374983 22.7249963 -48.26872711 20.45405615 -46.1875 16.9375 C-44 15 -44 15 -41 15 C-40.773125 14.113125 -40.54625 13.22625 -40.3125 12.3125 C-38.80889801 8.51769499 -37.08494714 6.63349146 -34 4 C-29.62374452 2.54124817 -25.26980716 1.9887435 -20.9921875 3.89453125 C-19.30582304 4.89294368 -17.65064834 5.94358506 -16 7 C-15.34 7 -14.68 7 -14 7 C-13.896875 6.401875 -13.79375 5.80375 -13.6875 5.1875 C-12.89363064 2.66155205 -12.04427591 1.65114593 -10 0 C-6.1544104 -1.2818632 -3.93271581 -0.94927623 0 0 Z " fill="#D6E8FD" transform="translate(48,21)"/>
<path d="M0 0 C2 2 2 2 2.13525391 4.88916016 C2.08288574 6.09362793 2.03051758 7.2980957 1.9765625 8.5390625 C1.925 9.84101562 1.8734375 11.14296875 1.8203125 12.484375 C1.75543042 13.86459379 1.69032333 15.24480202 1.625 16.625 C1.56676301 18.01298149 1.50945967 19.4010025 1.453125 20.7890625 C1.31128555 24.19320926 1.15983765 27.59665846 1 31 C-2.20784721 31.14622024 -5.41482961 31.23436651 -8.625 31.3125 C-9.52863281 31.35439453 -10.43226562 31.39628906 -11.36328125 31.43945312 C-15.7660984 31.5197965 -19.02498773 31.51148778 -22.609375 28.76171875 C-25.69104128 25.20168924 -25.77247078 23.65451216 -25.46484375 19.16015625 C-24.77280364 15.94420516 -23.43780754 14.15920097 -21 12 C-20.01 12 -19.02 12 -18 12 C-17.773125 11.113125 -17.54625 10.22625 -17.3125 9.3125 C-15.80889801 5.51769499 -14.08494714 3.63349146 -11 1 C-7.07703567 -0.30765478 -4.13997567 -0.1971417 0 0 Z " fill="#EDF5FF" transform="translate(25,24)"/>
<path d="M0 0 C2.8797993 2.02198674 4.64956037 3.45068794 5.4453125 6.96875 C5.65070444 10.63841936 5.30275871 12.62155161 3 15.5 C2.34 15.995 1.68 16.49 1 17 C-2.19107659 15.86032979 -3.01143674 14.98107022 -4.8125 12 C-7.53311152 8.26887563 -9.55948398 7.85394539 -14 7 C-13.4376049 3.73810844 -12.5859495 2.08865152 -10 0 C-6.1544104 -1.2818632 -3.93271581 -0.94927623 0 0 Z " fill="#FEBF36" transform="translate(48,21)"/>
<path d="M0 0 C0 3.63 0 7.26 0 11 C-2.97 10.01 -5.94 9.02 -9 8 C-7.81927711 3.27710843 -7.81927711 3.27710843 -5 1 C-2 0 -2 0 0 0 Z " fill="#FEE14D" transform="translate(43,20)"/>
<path d="M0 0 C0.598125 0.226875 1.19625 0.45375 1.8125 0.6875 C1.8125 3.6875 1.8125 3.6875 0.5 5.07421875 C-1.0625 6.27864583 -2.625 7.48307292 -4.1875 8.6875 C-4.8475 8.0275 -5.5075 7.3675 -6.1875 6.6875 C-5.94958141 4.22900788 -5.323619 2.87547385 -3.875 0.875 C-2.1875 -0.3125 -2.1875 -0.3125 0 0 Z " fill="#FFB932" transform="translate(57.1875,14.3125)"/>
<path d="M0 0 C3.36720387 1.39332574 4.9859524 2.9789286 7 6 C5.68 6.99 4.36 7.98 3 9 C1.35 7.35 -0.3 5.7 -2 4 C-1.34 2.68 -0.68 1.36 0 0 Z " fill="#FFE04D" transform="translate(29,14)"/>
<path d="M0 0 C1.65 0 3.3 0 5 0 C5 2.64 5 5.28 5 8 C3.35 8 1.7 8 0 8 C0 5.36 0 2.72 0 0 Z " fill="#FFCF41" transform="translate(41,9)"/>
<path d="M0 0 C2.64 0 5.28 0 8 0 C8 1.32 8 2.64 8 4 C5.36 4 2.72 4 0 4 C0 2.68 0 1.36 0 0 Z " fill="#FFBA32" transform="translate(56,28)"/>
</svg>
