<?xml version="1.0" encoding="UTF-8"?>
<!DOCTYPE svg PUBLIC "-//W3C//DTD SVG 1.1//EN" "http://www.w3.org/Graphics/SVG/1.1/DTD/svg11.dtd">
<svg xmlns="http://www.w3.org/2000/svg" version="1.1" width="512px" height="512px" style="shape-rendering:geometricPrecision; text-rendering:geometricPrecision; image-rendering:optimizeQuality; fill-rule:evenodd; clip-rule:evenodd" xmlns:xlink="http://www.w3.org/1999/xlink">
<g><path style="opacity:0.983" fill="#ffbd40" d="M 239.5,-0.5 C 244.833,-0.5 250.167,-0.5 255.5,-0.5C 255.5,14.8333 255.5,30.1667 255.5,45.5C 250.167,45.5 244.833,45.5 239.5,45.5C 239.5,30.1667 239.5,14.8333 239.5,-0.5 Z"/></g>
<g><path style="opacity:0.983" fill="#ff9e40" d="M 255.5,-0.5 C 260.833,-0.5 266.167,-0.5 271.5,-0.5C 271.5,14.8333 271.5,30.1667 271.5,45.5C 266.167,45.5 260.833,45.5 255.5,45.5C 255.5,30.1667 255.5,14.8333 255.5,-0.5 Z"/></g>
<g><path style="opacity:0.957" fill="#ffbe3f" d="M 139.5,25.5 C 141.433,26.6417 142.933,28.3083 144,30.5C 150.38,42.0971 156.88,53.5971 163.5,65C 155.429,70.7895 146.929,75.9562 138,80.5C 136.739,80.2409 135.739,79.5742 135,78.5C 127.833,66 120.667,53.5 113.5,41C 122.395,36.059 131.062,30.8923 139.5,25.5 Z"/></g>
<g><path style="opacity:0.961" fill="#ff9f3f" d="M 369.5,25.5 C 378.94,30.3886 388.273,35.5552 397.5,41C 390.333,53.5 383.167,66 376,78.5C 375.261,79.5742 374.261,80.2409 373,80.5C 364.071,75.9562 355.571,70.7895 347.5,65C 354.977,51.8755 362.311,38.7088 369.5,25.5 Z"/></g>
<g><path style="opacity:0.993" fill="#ffde3f" d="M 255.5,74.5 C 255.5,94.8333 255.5,115.167 255.5,135.5C 203.216,137.549 166.049,162.215 144,209.5C 127.276,256.123 134.61,298.456 166,336.5C 190.208,362.183 220.041,375.183 255.5,375.5C 255.5,395.833 255.5,416.167 255.5,436.5C 192.694,434.851 142.861,408.851 106,358.5C 72.7127,306.924 65.7127,251.924 85,193.5C 113.376,124.041 164.876,84.541 239.5,75C 244.823,74.5006 250.156,74.334 255.5,74.5 Z"/></g>
<g><path style="opacity:0.992" fill="#ffbd3f" d="M 255.5,74.5 C 333.153,77.3862 388.653,113.72 422,183.5C 448.937,254.545 438.27,319.212 390,377.5C 353.607,416.107 308.773,435.774 255.5,436.5C 255.5,416.167 255.5,395.833 255.5,375.5C 312.834,372.656 351.334,344.323 371,290.5C 384.597,231.928 366.764,185.761 317.5,152C 298.318,140.871 277.652,135.371 255.5,135.5C 255.5,115.167 255.5,94.8333 255.5,74.5 Z"/></g>
<g><path style="opacity:0.954" fill="#ffbe40" d="M 40.5,114.5 C 43.0163,114.755 45.3496,115.589 47.5,117C 58.4162,123.374 69.2495,129.874 80,136.5C 80.6667,137.5 80.6667,138.5 80,139.5C 75.3681,147.784 70.3681,155.784 65,163.5C 51.6035,156.219 38.4369,148.552 25.5,140.5C 30.5117,131.806 35.5117,123.139 40.5,114.5 Z"/></g>
<g><path style="opacity:0.958" fill="#ff9f3f" d="M 467.5,114.5 C 468.822,114.33 469.989,114.663 471,115.5C 475.833,123.833 480.667,132.167 485.5,140.5C 472.563,148.552 459.396,156.219 446,163.5C 440.632,155.784 435.632,147.784 431,139.5C 430.333,138.5 430.333,137.5 431,136.5C 443.313,129.267 455.48,121.933 467.5,114.5 Z"/></g>
<g><path style="opacity:1" fill="#ffbe3f" d="M 255.5,135.5 C 255.5,215.5 255.5,295.5 255.5,375.5C 220.041,375.183 190.208,362.183 166,336.5C 134.61,298.456 127.276,256.123 144,209.5C 166.049,162.215 203.216,137.549 255.5,135.5 Z"/></g>
<g><path style="opacity:1" fill="#ff9f3f" d="M 255.5,135.5 C 277.652,135.371 298.318,140.871 317.5,152C 366.764,185.761 384.597,231.928 371,290.5C 351.334,344.323 312.834,372.656 255.5,375.5C 255.5,295.5 255.5,215.5 255.5,135.5 Z"/></g>
<g><path style="opacity:1" fill="#ffbe3f" d="M -0.5,239.5 C 14.8333,239.5 30.1667,239.5 45.5,239.5C 45.5,250.167 45.5,260.833 45.5,271.5C 30.1667,271.5 14.8333,271.5 -0.5,271.5C -0.5,260.833 -0.5,250.167 -0.5,239.5 Z"/></g>
<g><path style="opacity:1" fill="#ff9e40" d="M 511.5,239.5 C 511.5,250.167 511.5,260.833 511.5,271.5C 496.167,271.5 480.833,271.5 465.5,271.5C 465.5,260.833 465.5,250.167 465.5,239.5C 480.833,239.5 496.167,239.5 511.5,239.5 Z"/></g>
<g><path style="opacity:0.953" fill="#ffbe3f" d="M 63.5,347.5 C 64.675,347.281 65.675,347.614 66.5,348.5C 71,356.167 75.5,363.833 80,371.5C 80.6667,372.5 80.6667,373.5 80,374.5C 69.2495,381.126 58.4162,387.626 47.5,394C 45.3502,395.59 43.0168,396.257 40.5,396C 35.3739,387.582 30.3739,379.082 25.5,370.5C 38.2303,362.808 50.8969,355.141 63.5,347.5 Z"/></g>
<g><path style="opacity:0.959" fill="#ff9f3f" d="M 444.5,347.5 C 458.554,354.363 472.221,362.03 485.5,370.5C 480.626,379.082 475.626,387.582 470.5,396C 468.711,396.52 467.044,396.187 465.5,395C 453.917,388.293 442.417,381.459 431,374.5C 430.333,373.5 430.333,372.5 431,371.5C 435.777,363.607 440.277,355.607 444.5,347.5 Z"/></g>
<g><path style="opacity:0.957" fill="#ffbd3f" d="M 136.5,430.5 C 146.082,434.625 155.082,439.792 163.5,446C 156.219,459.396 148.552,472.563 140.5,485.5C 131.5,480.333 122.5,475.167 113.5,470C 121.305,456.888 128.971,443.721 136.5,430.5 Z"/></g>
<g><path style="opacity:0.962" fill="#ff9f3f" d="M 371.5,430.5 C 373.39,430.297 374.89,430.963 376,432.5C 383.167,445 390.333,457.5 397.5,470C 388.5,475.167 379.5,480.333 370.5,485.5C 362.448,472.563 354.781,459.396 347.5,446C 355.388,440.603 363.388,435.437 371.5,430.5 Z"/></g>
<g><path style="opacity:0.983" fill="#ffbd40" d="M 255.5,465.5 C 255.5,480.833 255.5,496.167 255.5,511.5C 250.167,511.5 244.833,511.5 239.5,511.5C 239.5,496.167 239.5,480.833 239.5,465.5C 244.833,465.5 250.167,465.5 255.5,465.5 Z"/></g>
<g><path style="opacity:1" fill="#ff9e40" d="M 255.5,465.5 C 260.833,465.5 266.167,465.5 271.5,465.5C 271.5,480.833 271.5,496.167 271.5,511.5C 266.167,511.5 260.833,511.5 255.5,511.5C 255.5,496.167 255.5,480.833 255.5,465.5 Z"/></g>
</svg>
